<svg xmlns:xlink="http://www.w3.org/1999/xlink" xmlns="http://www.w3.org/2000/svg" viewBox="0 -0.5 280 220" shape-rendering="crispEdges" width="1920"  height="927" >
<metadata>Made with Pixels to Svg https://codepen.io/shshaw/pen/XbxvNj</metadata>
<path stroke="#e1f1ff" d="M200 0h40M200 1h40M200 2h40M200 3h40M200 4h40M200 5h40M200 6h40M200 7h40M200 8h40M200 9h40M200 10h40M200 11h40M200 12h40M200 13h40M200 14h40M200 15h40M200 16h40M200 17h40M200 18h40M200 19h40M180 20h20M240 20h20M180 21h20M240 21h20M180 22h20M240 22h20M180 23h20M240 23h20M180 24h20M240 24h20M180 25h20M240 25h20M180 26h20M240 26h20M180 27h20M240 27h20M180 28h20M240 28h20M180 29h20M240 29h20M180 30h20M240 30h20M180 31h20M240 31h20M180 32h20M240 32h20M180 33h20M240 33h20M180 34h20M240 34h20M180 35h20M240 35h20M180 36h20M240 36h20M180 37h20M240 37h20M180 38h20M240 38h20M180 39h20M240 39h20M40 40h40M160 40h20M260 40h20M40 41h40M160 41h20M260 41h20M40 42h40M160 42h20M260 42h20M40 43h40M160 43h20M260 43h20M40 44h40M160 44h20M260 44h20M40 45h40M160 45h20M260 45h20M40 46h40M160 46h20M260 46h20M40 47h40M160 47h20M260 47h20M40 48h40M160 48h20M260 48h20M40 49h40M160 49h20M260 49h20M40 50h40M160 50h20M260 50h20M40 51h40M160 51h20M260 51h20M40 52h40M160 52h20M260 52h20M40 53h40M160 53h20M260 53h20M40 54h40M160 54h20M260 54h20M40 55h40M160 55h20M260 55h20M40 56h40M160 56h20M260 56h20M40 57h40M160 57h20M260 57h20M40 58h40M160 58h20M260 58h20M40 59h40M160 59h20M260 59h20M20 60h20M80 60h20M140 60h20M260 60h20M20 61h20M80 61h20M140 61h20M260 61h20M20 62h20M80 62h20M140 62h20M260 62h20M20 63h20M80 63h20M140 63h20M260 63h20M20 64h20M80 64h20M140 64h20M260 64h20M20 65h20M80 65h20M140 65h20M260 65h20M20 66h20M80 66h20M140 66h20M260 66h20M20 67h20M80 67h20M140 67h20M260 67h20M20 68h20M80 68h20M140 68h20M260 68h20M20 69h20M80 69h20M140 69h20M260 69h20M20 70h20M80 70h20M140 70h20M260 70h20M20 71h20M80 71h20M140 71h20M260 71h20M20 72h20M80 72h20M140 72h20M260 72h20M20 73h20M80 73h20M140 73h20M260 73h20M20 74h20M80 74h20M140 74h20M260 74h20M20 75h20M80 75h20M140 75h20M260 75h20M20 76h20M80 76h20M140 76h20M260 76h20M20 77h20M80 77h20M140 77h20M260 77h20M20 78h20M80 78h20M140 78h20M260 78h20M20 79h20M80 79h20M140 79h20M260 79h20M0 80h20M100 80h40M240 80h20M0 81h20M100 81h40M240 81h20M0 82h20M100 82h40M240 82h20M0 83h20M100 83h40M240 83h20M0 84h20M100 84h40M240 84h20M0 85h20M100 85h40M240 85h20M0 86h20M100 86h40M240 86h20M0 87h20M100 87h40M240 87h20M0 88h20M100 88h40M240 88h20M0 89h20M100 89h40M240 89h20M0 90h20M100 90h40M240 90h20M0 91h20M100 91h40M240 91h20M0 92h20M100 92h40M240 92h20M0 93h20M100 93h40M240 93h20M0 94h20M100 94h40M240 94h20M0 95h20M100 95h40M240 95h20M0 96h20M100 96h40M240 96h20M0 97h20M100 97h40M240 97h20M0 98h20M100 98h40M240 98h20M0 99h20M100 99h40M240 99h20M0 100h20M220 100h20M0 101h20M220 101h20M0 102h20M220 102h20M0 103h20M220 103h20M0 104h20M220 104h20M0 105h20M220 105h20M0 106h20M220 106h20M0 107h20M220 107h20M0 108h20M220 108h20M0 109h20M220 109h20M0 110h20M220 110h20M0 111h20M220 111h20M0 112h20M220 112h20M0 113h20M220 113h20M0 114h20M220 114h20M0 115h20M220 115h20M0 116h20M220 116h20M0 117h20M220 117h20M0 118h20M220 118h20M0 119h20M220 119h20M20 120h20M200 120h20M20 121h20M200 121h20M20 122h20M200 122h20M20 123h20M200 123h20M20 124h20M200 124h20M20 125h20M200 125h20M20 126h20M200 126h20M20 127h20M200 127h20M20 128h20M200 128h20M20 129h20M200 129h20M20 130h20M200 130h20M20 131h20M200 131h20M20 132h20M200 132h20M20 133h20M200 133h20M20 134h20M200 134h20M20 135h20M200 135h20M20 136h20M200 136h20M20 137h20M200 137h20M20 138h20M200 138h20M20 139h20M200 139h20M40 140h20M180 140h20M40 141h20M180 141h20M40 142h20M180 142h20M40 143h20M180 143h20M40 144h20M180 144h20M40 145h20M180 145h20M40 146h20M180 146h20M40 147h20M180 147h20M40 148h20M180 148h20M40 149h20M180 149h20M40 150h20M180 150h20M40 151h20M180 151h20M40 152h20M180 152h20M40 153h20M180 153h20M40 154h20M180 154h20M40 155h20M180 155h20M40 156h20M180 156h20M40 157h20M180 157h20M40 158h20M180 158h20M40 159h20M180 159h20M60 160h20M160 160h20M60 161h20M160 161h20M60 162h20M160 162h20M60 163h20M160 163h20M60 164h20M160 164h20M60 165h20M160 165h20M60 166h20M160 166h20M60 167h20M160 167h20M60 168h20M160 168h20M60 169h20M160 169h20M60 170h20M160 170h20M60 171h20M160 171h20M60 172h20M160 172h20M60 173h20M160 173h20M60 174h20M160 174h20M60 175h20M160 175h20M60 176h20M160 176h20M60 177h20M160 177h20M60 178h20M160 178h20M60 179h20M160 179h20M80 180h20M140 180h20M80 181h20M140 181h20M80 182h20M140 182h20M80 183h20M140 183h20M80 184h20M140 184h20M80 185h20M140 185h20M80 186h20M140 186h20M80 187h20M140 187h20M80 188h20M140 188h20M80 189h20M140 189h20M80 190h20M140 190h20M80 191h20M140 191h20M80 192h20M140 192h20M80 193h20M140 193h20M80 194h20M140 194h20M80 195h20M140 195h20M80 196h20M140 196h20M80 197h20M140 197h20M80 198h20M140 198h20M80 199h20M140 199h20M100 200h40M100 201h40M100 202h40M100 203h40M100 204h40M100 205h40M100 206h40M100 207h40M100 208h40M100 209h40M100 210h40M100 211h40M100 212h40M100 213h40M100 214h40M100 215h40M100 216h40M100 217h40M100 218h40M100 219h40"/>
<path stroke="#00eabf" d="M200 20h40M200 21h40M200 22h40M200 23h40M200 24h40M200 25h40M200 26h40M200 27h40M200 28h40M200 29h40M200 30h40M200 31h40M200 32h40M200 33h40M200 34h40M200 35h40M200 36h40M200 37h40M200 38h40M200 39h40M180 40h20M240 40h20M180 41h20M240 41h20M180 42h20M240 42h20M180 43h20M240 43h20M180 44h20M240 44h20M180 45h20M240 45h20M180 46h20M240 46h20M180 47h20M240 47h20M180 48h20M240 48h20M180 49h20M240 49h20M180 50h20M240 50h20M180 51h20M240 51h20M180 52h20M240 52h20M180 53h20M240 53h20M180 54h20M240 54h20M180 55h20M240 55h20M180 56h20M240 56h20M180 57h20M240 57h20M180 58h20M240 58h20M180 59h20M240 59h20M40 60h40M160 60h20M40 61h40M160 61h20M40 62h40M160 62h20M40 63h40M160 63h20M40 64h40M160 64h20M40 65h40M160 65h20M40 66h40M160 66h20M40 67h40M160 67h20M40 68h40M160 68h20M40 69h40M160 69h20M40 70h40M160 70h20M40 71h40M160 71h20M40 72h40M160 72h20M40 73h40M160 73h20M40 74h40M160 74h20M40 75h40M160 75h20M40 76h40M160 76h20M40 77h40M160 77h20M40 78h40M160 78h20M40 79h40M160 79h20M80 80h20M140 80h20M80 81h20M140 81h20M80 82h20M140 82h20M80 83h20M140 83h20M80 84h20M140 84h20M80 85h20M140 85h20M80 86h20M140 86h20M80 87h20M140 87h20M80 88h20M140 88h20M80 89h20M140 89h20M80 90h20M140 90h20M80 91h20M140 91h20M80 92h20M140 92h20M80 93h20M140 93h20M80 94h20M140 94h20M80 95h20M140 95h20M80 96h20M140 96h20M80 97h20M140 97h20M80 98h20M140 98h20M80 99h20M140 99h20M100 100h40M100 101h40M100 102h40M100 103h40M100 104h40M100 105h40M100 106h40M100 107h40M100 108h40M100 109h40M100 110h40M100 111h40M100 112h40M100 113h40M100 114h40M100 115h40M100 116h40M100 117h40M100 118h40M100 119h40"/>
<path stroke="#00a688" d="M200 40h40M200 41h40M200 42h40M200 43h40M200 44h40M200 45h40M200 46h40M200 47h40M200 48h40M200 49h40M200 50h40M200 51h40M200 52h40M200 53h40M200 54h40M200 55h40M200 56h40M200 57h40M200 58h40M200 59h40M180 60h60M180 61h60M180 62h60M180 63h60M180 64h60M180 65h60M180 66h60M180 67h60M180 68h60M180 69h60M180 70h60M180 71h60M180 72h60M180 73h60M180 74h60M180 75h60M180 76h60M180 77h60M180 78h60M180 79h60M20 80h60M160 80h60M20 81h60M160 81h60M20 82h60M160 82h60M20 83h60M160 83h60M20 84h60M160 84h60M20 85h60M160 85h60M20 86h60M160 86h60M20 87h60M160 87h60M20 88h60M160 88h60M20 89h60M160 89h60M20 90h60M160 90h60M20 91h60M160 91h60M20 92h60M160 92h60M20 93h60M160 93h60M20 94h60M160 94h60M20 95h60M160 95h60M20 96h60M160 96h60M20 97h60M160 97h60M20 98h60M160 98h60M20 99h60M160 99h60M40 100h60M140 100h60M40 101h60M140 101h60M40 102h60M140 102h60M40 103h60M140 103h60M40 104h60M140 104h60M40 105h60M140 105h60M40 106h60M140 106h60M40 107h60M140 107h60M40 108h60M140 108h60M40 109h60M140 109h60M40 110h60M140 110h60M40 111h60M140 111h60M40 112h60M140 112h60M40 113h60M140 113h60M40 114h60M140 114h60M40 115h60M140 115h60M40 116h60M140 116h60M40 117h60M140 117h60M40 118h60M140 118h60M40 119h60M140 119h60M60 120h120M60 121h120M60 122h120M60 123h120M60 124h120M60 125h120M60 126h120M60 127h120M60 128h120M60 129h120M60 130h120M60 131h120M60 132h120M60 133h120M60 134h120M60 135h120M60 136h120M60 137h120M60 138h120M60 139h120M80 140h80M80 141h80M80 142h80M80 143h80M80 144h80M80 145h80M80 146h80M80 147h80M80 148h80M80 149h80M80 150h80M80 151h80M80 152h80M80 153h80M80 154h80M80 155h80M80 156h80M80 157h80M80 158h80M80 159h80M100 160h40M100 161h40M100 162h40M100 163h40M100 164h40M100 165h40M100 166h40M100 167h40M100 168h40M100 169h40M100 170h40M100 171h40M100 172h40M100 173h40M100 174h40M100 175h40M100 176h40M100 177h40M100 178h40M100 179h40"/>
<path stroke="#005444" d="M240 60h20M240 61h20M240 62h20M240 63h20M240 64h20M240 65h20M240 66h20M240 67h20M240 68h20M240 69h20M240 70h20M240 71h20M240 72h20M240 73h20M240 74h20M240 75h20M240 76h20M240 77h20M240 78h20M240 79h20M220 80h20M220 81h20M220 82h20M220 83h20M220 84h20M220 85h20M220 86h20M220 87h20M220 88h20M220 89h20M220 90h20M220 91h20M220 92h20M220 93h20M220 94h20M220 95h20M220 96h20M220 97h20M220 98h20M220 99h20M20 100h20M200 100h20M20 101h20M200 101h20M20 102h20M200 102h20M20 103h20M200 103h20M20 104h20M200 104h20M20 105h20M200 105h20M20 106h20M200 106h20M20 107h20M200 107h20M20 108h20M200 108h20M20 109h20M200 109h20M20 110h20M200 110h20M20 111h20M200 111h20M20 112h20M200 112h20M20 113h20M200 113h20M20 114h20M200 114h20M20 115h20M200 115h20M20 116h20M200 116h20M20 117h20M200 117h20M20 118h20M200 118h20M20 119h20M200 119h20M40 120h20M180 120h20M40 121h20M180 121h20M40 122h20M180 122h20M40 123h20M180 123h20M40 124h20M180 124h20M40 125h20M180 125h20M40 126h20M180 126h20M40 127h20M180 127h20M40 128h20M180 128h20M40 129h20M180 129h20M40 130h20M180 130h20M40 131h20M180 131h20M40 132h20M180 132h20M40 133h20M180 133h20M40 134h20M180 134h20M40 135h20M180 135h20M40 136h20M180 136h20M40 137h20M180 137h20M40 138h20M180 138h20M40 139h20M180 139h20M60 140h20M160 140h20M60 141h20M160 141h20M60 142h20M160 142h20M60 143h20M160 143h20M60 144h20M160 144h20M60 145h20M160 145h20M60 146h20M160 146h20M60 147h20M160 147h20M60 148h20M160 148h20M60 149h20M160 149h20M60 150h20M160 150h20M60 151h20M160 151h20M60 152h20M160 152h20M60 153h20M160 153h20M60 154h20M160 154h20M60 155h20M160 155h20M60 156h20M160 156h20M60 157h20M160 157h20M60 158h20M160 158h20M60 159h20M160 159h20M80 160h20M140 160h20M80 161h20M140 161h20M80 162h20M140 162h20M80 163h20M140 163h20M80 164h20M140 164h20M80 165h20M140 165h20M80 166h20M140 166h20M80 167h20M140 167h20M80 168h20M140 168h20M80 169h20M140 169h20M80 170h20M140 170h20M80 171h20M140 171h20M80 172h20M140 172h20M80 173h20M140 173h20M80 174h20M140 174h20M80 175h20M140 175h20M80 176h20M140 176h20M80 177h20M140 177h20M80 178h20M140 178h20M80 179h20M140 179h20M100 180h40M100 181h40M100 182h40M100 183h40M100 184h40M100 185h40M100 186h40M100 187h40M100 188h40M100 189h40M100 190h40M100 191h40M100 192h40M100 193h40M100 194h40M100 195h40M100 196h40M100 197h40M100 198h40M100 199h40"/>
</svg>